<svg width="89" height="36" viewBox="0 0 89 36" fill="none" xmlns="http://www.w3.org/2000/svg">
<path d="M15.328 15.752H28.912V33.512C27.12 34.12 25.248 34.6 23.296 34.952C21.376 35.304 19.184 35.48 16.72 35.48C11.6 35.48 7.664 33.976 4.912 30.968C2.16 27.96 0.784 23.576 0.784 17.816C0.784 14.232 1.472 11.128 2.848 8.504C4.256 5.88 6.288 3.848 8.944 2.408C11.6 0.967999 14.848 0.247998 18.688 0.247998C20.512 0.247998 22.304 0.439999 24.064 0.823999C25.824 1.208 27.424 1.72 28.864 2.36L26.464 8.168C25.408 7.624 24.208 7.176 22.864 6.824C21.52 6.472 20.112 6.296 18.64 6.296C16.528 6.296 14.688 6.776 13.12 7.736C11.584 8.696 10.384 10.056 9.52 11.816C8.688 13.544 8.272 15.592 8.272 17.96C8.272 20.2 8.576 22.184 9.184 23.912C9.792 25.64 10.752 27 12.064 27.992C13.376 28.952 15.088 29.432 17.2 29.432C18.224 29.432 19.088 29.384 19.792 29.288C20.528 29.192 21.2 29.08 21.808 28.952V21.8H15.328V15.752ZM50.2544 35H43.0064V6.776H33.6944V0.727998H59.5664V6.776H50.2544V35ZM75.7953 0.727998C80.2113 0.727998 83.4273 1.688 85.4433 3.608C87.4913 5.496 88.5153 8.104 88.5153 11.432C88.5153 13.416 88.0993 15.288 87.2673 17.048C86.4353 18.776 85.0433 20.168 83.0913 21.224C81.1713 22.28 78.5473 22.808 75.2193 22.808H72.0993V35H64.8513V0.727998H75.7953ZM75.4113 6.68H72.0993V16.856H74.4993C76.5473 16.856 78.1633 16.456 79.3473 15.656C80.5633 14.824 81.1713 13.496 81.1713 11.672C81.1713 8.344 79.2513 6.68 75.4113 6.68Z" fill="white"/>
</svg>
