<svg width="147" height="52" viewBox="0 0 147 52" fill="none" xmlns="http://www.w3.org/2000/svg">
<path d="M71.328 31.752H84.912V49.512C83.12 50.12 81.248 50.6 79.296 50.952C77.376 51.304 75.184 51.48 72.72 51.48C67.6 51.48 63.664 49.976 60.912 46.968C58.16 43.96 56.784 39.576 56.784 33.816C56.784 30.232 57.472 27.128 58.848 24.504C60.256 21.88 62.288 19.848 64.944 18.408C67.6 16.968 70.848 16.248 74.688 16.248C76.512 16.248 78.304 16.44 80.064 16.824C81.824 17.208 83.424 17.72 84.864 18.36L82.464 24.168C81.408 23.624 80.208 23.176 78.864 22.824C77.52 22.472 76.112 22.296 74.64 22.296C72.528 22.296 70.688 22.776 69.12 23.736C67.584 24.696 66.384 26.056 65.52 27.816C64.688 29.544 64.272 31.592 64.272 33.96C64.272 36.2 64.576 38.184 65.184 39.912C65.792 41.64 66.752 43 68.064 43.992C69.376 44.952 71.088 45.432 73.2 45.432C74.224 45.432 75.088 45.384 75.792 45.288C76.528 45.192 77.2 45.08 77.808 44.952V37.8H71.328V31.752ZM106.254 51H99.0064V22.776H89.6944V16.728H115.566V22.776H106.254V51ZM131.795 16.728C136.211 16.728 139.427 17.688 141.443 19.608C143.491 21.496 144.515 24.104 144.515 27.432C144.515 29.416 144.099 31.288 143.267 33.048C142.435 34.776 141.043 36.168 139.091 37.224C137.171 38.28 134.547 38.808 131.219 38.808H128.099V51H120.851V16.728H131.795ZM131.411 22.68H128.099V32.856H130.499C132.547 32.856 134.163 32.456 135.347 31.656C136.563 30.824 137.171 29.496 137.171 27.672C137.171 24.344 135.251 22.68 131.411 22.68Z" fill="white"/>
<path d="M1 35.4944V51H25.5333M1 35.4944L11.8356 23.4345H25.5333V14.8202L35.7556 5M1 35.4944H25.5333M35.7556 5L47 14.8202V35.4944M35.7556 5V23.4345M25.5333 35.4944V51M25.5333 35.4944L35.7556 23.4345M25.5333 51H47V35.4944M35.7556 23.4345L47 35.4944" stroke="#F2F7F4" stroke-width="2"/>
</svg>
