<svg width="149" height="50" viewBox="0 0 149 50" fill="none" xmlns="http://www.w3.org/2000/svg">
<path d="M1 32.4944V48H25.5333M1 32.4944L11.8356 20.4345H25.5333V11.8202L35.7556 2M1 32.4944H25.5333M35.7556 2L47 11.8202V32.4944M35.7556 2V20.4345M25.5333 32.4944V48M25.5333 32.4944L35.7556 20.4345M25.5333 48H47V32.4944M35.7556 20.4345L47 32.4944M74.328 28.752H87.912V46.512C86.12 47.12 84.248 47.6 82.296 47.952C80.376 48.304 78.184 48.48 75.72 48.48C70.6 48.48 66.664 46.976 63.912 43.968C61.16 40.96 59.784 36.576 59.784 30.816C59.784 27.232 60.472 24.128 61.848 21.504C63.256 18.88 65.288 16.848 67.944 15.408C70.6 13.968 73.848 13.248 77.688 13.248C79.512 13.248 81.304 13.44 83.064 13.824C84.824 14.208 86.424 14.72 87.864 15.36L85.464 21.168C84.408 20.624 83.208 20.176 81.864 19.824C80.52 19.472 79.112 19.296 77.64 19.296C75.528 19.296 73.688 19.776 72.12 20.736C70.584 21.696 69.384 23.056 68.52 24.816C67.688 26.544 67.272 28.592 67.272 30.96C67.272 33.2 67.576 35.184 68.184 36.912C68.792 38.64 69.752 40 71.064 40.992C72.376 41.952 74.088 42.432 76.2 42.432C77.224 42.432 78.088 42.384 78.792 42.288C79.528 42.192 80.2 42.08 80.808 41.952V34.8H74.328V28.752ZM109.254 48H102.006V19.776H92.6944V13.728H118.566V19.776H109.254V48ZM134.795 13.728C139.211 13.728 142.427 14.688 144.443 16.608C146.491 18.496 147.515 21.104 147.515 24.432C147.515 26.416 147.099 28.288 146.267 30.048C145.435 31.776 144.043 33.168 142.091 34.224C140.171 35.28 137.547 35.808 134.219 35.808H131.099V48H123.851V13.728H134.795ZM134.411 19.68H131.099V29.856H133.499C135.547 29.856 137.163 29.456 138.347 28.656C139.563 27.824 140.171 26.496 140.171 24.672C140.171 21.344 138.251 19.68 134.411 19.68Z" stroke="#F2F7F4" stroke-width="2"/>
</svg>
